# xmcd CD database file
#
# Track frame offsets:
#	150
#	20453
#	38995
#	59298
#
# Disc length: 1034 seconds
#
# Revision: 4
# Processed by: cddbd v1.5.2PL0 Copyright (c) Steve Scherf et al.
# Submitted via: CDex 1.70beta2
#
DISCID=2c040804
DTITLE=根岸さとり - 機動戦士ガンダムSEED C.E.73 STARGAZER　主題歌　STARGAZER～星の扉
DYEAR=2006
DGENRE=Anime(J)
TTITLE0=STARGAZER ～星の扉
TTITLE1=三日月のパズル
TTITLE2=STARGAZER ～星の扉 (without vocal)
TTITLE3=三日月のパズル (without vocal)
EXTD=YEAR: 2006
EXTT0=
EXTT1=
EXTT2=
EXTT3=
PLAYORDER=
